<?xml version="1.0" standalone="no"?>
<!DOCTYPE svg PUBLIC "-//W3C//DTD SVG 20010904//EN"
 "http://www.w3.org/TR/2001/REC-SVG-20010904/DTD/svg10.dtd">
<svg version="1.0" xmlns="http://www.w3.org/2000/svg"
 width="200.000000pt" height="200.000000pt" viewBox="0 0 200.000000 200.000000"
 preserveAspectRatio="xMidYMid meet">
<metadata>
Created by potrace 1.14, written by Peter Selinger 2001-2017
</metadata>
<g transform="translate(0.000000,200.000000) scale(0.100000,-0.100000)"
fill="#000000" stroke="none">
<path d="M978 1978 c-3 -7 19 -48 49 -91 29 -43 53 -82 53 -87 0 -6 -38 -10
-87 -10 -49 -1 -106 -3 -128 -6 -154 -21 -328 -92 -437 -179 -174 -138 -263
-361 -226 -566 l9 -50 -55 -60 c-69 -75 -105 -134 -126 -213 -83 -305 216
-603 696 -691 73 -13 134 -16 305 -12 224 4 238 6 359 38 107 29 193 65 284
118 342 201 408 519 159 767 -41 42 -44 48 -38 81 44 239 -58 481 -261 617
-66 44 -71 56 -24 56 32 0 55 23 46 45 -7 20 -58 19 -123 -4 -29 -10 -56 -14
-60 -10 -9 8 -131 44 -183 53 -30 6 -39 14 -60 58 -43 88 -98 158 -125 158
-13 0 -25 -5 -27 -12z"/>
</g>
</svg>
